<?xml version="1.0" encoding="utf-8"?>
<!-- Generator: Adobe Illustrator 22.0.1, SVG Export Plug-In . SVG Version: 6.00 Build 0)  -->
<svg version="1.1"
	 id="svg2" inkscape:version="0.48.3.1 r9886" sodipodi:docname="SG-logo.svg" xmlns:cc="http://creativecommons.org/ns#" xmlns:dc="http://purl.org/dc/elements/1.1/" xmlns:inkscape="http://www.inkscape.org/namespaces/inkscape" xmlns:rdf="http://www.w3.org/1999/02/22-rdf-syntax-ns#" xmlns:sodipodi="http://sodipodi.sourceforge.net/DTD/sodipodi-0.dtd" xmlns:svg="http://www.w3.org/2000/svg"
	 xmlns="http://www.w3.org/2000/svg" xmlns:xlink="http://www.w3.org/1999/xlink" x="0px" y="0px"
	 viewBox="25.893 13 216.256 117.5" enable-background="new 25.893 13 216.256 117.5" xml:space="preserve">
<defs>
	
	
		<inkscape:perspective  id="perspective10" inkscape:persp3d-origin="0.5 : 0.33333333 : 1" inkscape:vp_x="0 : 0.5 : 1" inkscape:vp_y="0 : 1000 : 0" inkscape:vp_z="1 : 0.5 : 1" sodipodi:type="inkscape:persp3d">
		</inkscape:perspective>
</defs>
<sodipodi:namedview  bordercolor="#666666" borderopacity="1" gridtolerance="10" guidetolerance="10" id="namedview4" inkscape:current-layer="g3012" inkscape:cx="136.56126" inkscape:cy="78.892517" inkscape:pageopacity="0" inkscape:pageshadow="2" inkscape:window-height="846" inkscape:window-maximized="1" inkscape:window-width="1389" inkscape:window-x="51" inkscape:window-y="24" inkscape:zoom="1.4957059" objecttolerance="10" pagecolor="#ffffff" showgrid="false">
	</sodipodi:namedview>
<path id="path18" fill="#00A0E0" d="M205.831,92.405H182.95V72.434h55.919v55.919h-19.97v-11.776
	c-9.402,7.378-21.258,11.776-34.135,11.776c-30.564,0-55.345-24.775-55.345-55.34c0-30.566,24.78-55.344,55.345-55.344
	c24.494,0,45.268,15.912,52.558,37.961h-29.804c-5.23-6.839-13.48-11.25-22.754-11.25c-15.812,0-28.635,12.818-28.635,28.633
	c0,15.812,12.822,28.632,28.635,28.632C193.094,101.645,200.596,98.085,205.831,92.405L205.831,92.405L205.831,92.405z"/>
<path id="path20" fill="#00A0E0" d="M58.813,91.395c0.594,4.129,0.856,6.672,2.904,9.09c3.469,3.828,9.532,4.729,16.894,4.729
	c11.119,0,17.759-3.07,17.759-10.211c0-3.954-2.311-7.395-6.061-8.927c-3.033-1.274-6.64-2.17-21.659-5.23
	c-13.28-2.548-17.902-4.08-23.247-7.395C36.308,67.842,31.4,59.298,31.4,48.966c0-19.636,17.902-32.005,46.346-32.005
	c18.338,0,32.342,4.973,40.14,14.538c3.092,3.604,6.565,10.861,7.169,17.532l0.011,0.812H94.46v-0.265
	c-1.766-8.177-6.967-11.576-17.867-11.576c-8.808,0-15.305,4.208-15.305,10.074c0,3.57,2.167,6.25,6.783,8.159
	c2.89,1.15,2.89,1.15,19.927,4.208c10.976,2.042,17.902,4.208,23.391,7.269c10.39,5.738,15.591,14.283,15.591,26.016
	c0,9.562-3.464,17.725-10.104,23.463c-8.377,7.14-21.08,10.839-37.977,10.839c-12.272,0-24.401-2.297-32.194-6.247
	c-7.219-3.57-12.563-9.056-15.593-16.325c-1.37-2.894-2.237-7.346-2.409-14.062H58.813L58.813,91.395L58.813,91.395z"/>
</svg>
